<?xml version="1.0" standalone="no"?>
<!DOCTYPE svg PUBLIC "-//W3C//DTD SVG 20010904//EN"
 "http://www.w3.org/TR/2001/REC-SVG-20010904/DTD/svg10.dtd">
<svg version="1.0" xmlns="http://www.w3.org/2000/svg"
 width="75.000000pt" height="48.000000pt" viewBox="0 0 475.000000 288.000000"
 preserveAspectRatio="xMidYMid meet">

<g transform="translate(0.000000,248.000000) scale(0.100000,-0.100000)"
fill="#000000" stroke="none">
<path d="M1475 1886 c-89 -28 -153 -83 -196 -166 -20 -40 -23 -63 -27 -202
l-4 -158 -112 0 -111 0 0 -130 0 -130 105 -1 c58 -1 108 -1 113 0 4 0 7 -138
7 -309 l0 -310 140 0 140 0 0 309 0 310 93 0 c50 0 97 0 103 1 7 0 15 21 19
46 3 25 8 53 9 62 2 10 7 40 10 67 4 28 9 58 12 68 5 16 -5 17 -120 17 l-126
0 0 95 c0 161 28 196 163 203 45 2 83 5 84 6 4 3 7 216 3 217 -3 0 -14 3 -25
5 -52 12 -242 12 -280 0z"/>
</g>
</svg>
