<?xml version="1.0" standalone="no"?>
<!DOCTYPE svg PUBLIC "-//W3C//DTD SVG 20010904//EN"
 "http://www.w3.org/TR/2001/REC-SVG-20010904/DTD/svg10.dtd">
<svg version="1.0" xmlns="http://www.w3.org/2000/svg"
 width="75.000000pt" height="48.000000pt" viewBox="0 0 475.000000 288.000000"
 preserveAspectRatio="xMidYMid meet">

<g transform="translate(0.000000,241.000000) scale(0.100000,-0.100000)"
fill="#000000" stroke="none">
<path d="M1019 1826 c-2 -2 -17 -6 -34 -9 -154 -28 -278 -137 -330 -291 -15
-42 -17 -100 -16 -410 0 -223 4 -372 10 -389 6 -15 8 -27 5 -27 -15 0 68 -131
110 -173 50 -50 139 -100 200 -111 56 -11 727 -8 764 3 17 5 32 8 32 5 0 -2
27 9 59 26 118 59 197 164 227 300 2 8 5 175 6 370 1 385 0 398 -57 496 -58
98 -178 181 -293 202 -51 9 -674 17 -683 8z m681 -151 c100 -26 169 -94 201
-197 17 -53 19 -91 16 -386 -3 -290 -5 -332 -21 -367 -29 -65 -80 -119 -138
-147 l-55 -27 -349 -1 c-205 -1 -363 3 -382 9 -83 25 -150 93 -182 183 -17 48
-18 84 -16 388 2 317 3 338 23 381 37 83 117 147 208 169 17 4 168 8 336 8
231 1 319 -3 359 -13z"/>
<path d="M1657 1541 c-55 -65 5 -158 88 -137 34 9 67 63 59 96 -17 72 -101 95
-147 41z"/>
<path d="M1277 1458 c-102 -22 -201 -101 -246 -197 -23 -49 -26 -68 -25 -151
0 -83 4 -102 28 -149 47 -91 145 -170 235 -188 89 -18 202 2 277 49 164 104
203 349 81 508 -77 99 -228 155 -350 128z m160 -143 c178 -75 175 -326 -6
-403 -170 -74 -358 110 -286 281 50 119 174 171 292 122z"/>
</g>
</svg>
