<?xml version="1.0" standalone="no"?>
<!DOCTYPE svg PUBLIC "-//W3C//DTD SVG 20010904//EN"
 "http://www.w3.org/TR/2001/REC-SVG-20010904/DTD/svg10.dtd">
<svg version="1.0" xmlns="http://www.w3.org/2000/svg"
 width="75.000000pt" height="48.000000pt" viewBox="0 0 475.000000 248.000000"
 preserveAspectRatio="xMidYMid meet">

<g transform="translate(0.000000,219.000000) scale(0.100000,-0.100000)"
fill="#000000" stroke="none">
<path d="M1635 1741 c-105 -35 -178 -101 -223 -200 -20 -44 -26 -73 -26 -134
l-1 -78 -49 7 c-27 3 -60 10 -73 15 -13 5 -23 7 -23 4 0 -8 -203 66 -264 97
-86 43 -149 90 -237 175 -83 81 -83 81 -113 4 -18 -46 -22 -119 -11 -186 9
-53 56 -144 94 -179 17 -17 31 -33 31 -37 0 -4 -27 2 -61 13 -34 11 -64 17
-69 12 -5 -5 -4 -31 1 -57 20 -109 102 -219 194 -263 28 -13 48 -24 45 -25 -3
0 -25 -2 -50 -3 -65 -2 -71 -9 -49 -53 48 -95 113 -146 236 -187 l66 -23 -32
-22 c-84 -60 -282 -114 -400 -109 -46 1 -76 -1 -75 -7 2 -20 161 -93 284 -130
3 -1 23 -5 45 -10 22 -4 49 -10 60 -12 40 -10 272 -11 330 -2 409 64 696 318
794 702 23 90 29 128 37 246 l7 94 77 76 c42 42 79 86 82 99 7 27 8 27 -66 2
-33 -11 -63 -20 -68 -20 -5 0 7 19 26 42 38 44 82 125 73 134 -3 3 -27 -4 -54
-16 -26 -12 -74 -30 -107 -41 -58 -20 -59 -20 -80 -1 -92 84 -233 114 -351 73z"/>
</g>
</svg>
