<?xml version="1.0" standalone="no"?>
<!DOCTYPE svg PUBLIC "-//W3C//DTD SVG 20010904//EN"
 "http://www.w3.org/TR/2001/REC-SVG-20010904/DTD/svg10.dtd">
<svg version="1.0" xmlns="http://www.w3.org/2000/svg"
 width="75.000000pt" height="48.000000pt" viewBox="0 0 385.000000 248.000000"
 preserveAspectRatio="xMidYMid meet">

<g transform="translate(0.000000,216.000000) scale(0.100000,-0.100000)"
fill="#000000" stroke="none">
<path d="M598 1501 c-53 -11 -141 -73 -176 -124 -50 -71 -55 -108 -53 -385 1
-229 3 -258 21 -298 37 -85 99 -144 182 -175 47 -17 87 -18 512 -19 504 0 504
0 590 60 49 33 89 87 111 150 13 37 16 93 16 308 l0 263 -33 60 c-32 61 -82
110 -148 145 -33 18 -66 19 -510 21 -261 0 -492 -2 -512 -6z m409 -322 c45
-26 109 -60 218 -119 86 -46 105 -58 105 -70 0 -15 -368 -192 -391 -188 l-24
3 -3 185 c-1 101 0 190 2 197 8 20 51 16 93 -8z"/>
</g>
</svg>
